<svg width="18" height="13" viewBox="0 0 18 13" fill="none" xmlns="http://www.w3.org/2000/svg">
<path d="M15.125 5.875C16.3281 5.875 17.3125 4.91797 17.3125 3.6875C17.3125 2.48438 16.3281 1.5 15.125 1.5C13.8945 1.5 12.9375 2.48438 12.9375 3.6875C12.9375 4.91797 13.8945 5.875 15.125 5.875ZM15.125 2.8125C15.5898 2.8125 16 3.22266 16 3.6875C16 4.17969 15.5898 4.5625 15.125 4.5625C14.6328 4.5625 14.25 4.17969 14.25 3.6875C14.25 3.22266 14.6328 2.8125 15.125 2.8125ZM2.875 5.875C4.07812 5.875 5.0625 4.91797 5.0625 3.6875C5.0625 2.48438 4.07812 1.5 2.875 1.5C1.64453 1.5 0.6875 2.48438 0.6875 3.6875C0.6875 4.91797 1.64453 5.875 2.875 5.875ZM2.875 2.8125C3.33984 2.8125 3.75 3.22266 3.75 3.6875C3.75 4.17969 3.33984 4.5625 2.875 4.5625C2.38281 4.5625 2 4.17969 2 3.6875C2 3.22266 2.38281 2.8125 2.875 2.8125ZM13.7031 8.58203C12.9375 7.48828 11.4883 7.05078 10.2031 7.46094C9.82031 7.57031 9.41016 7.625 8.97266 7.625C8.5625 7.625 8.15234 7.57031 7.76953 7.46094C6.48438 7.05078 5.00781 7.46094 4.26953 8.58203C3.94141 9.10156 3.72266 9.70312 3.72266 10.3594V11.5625C3.72266 12.3008 4.32422 12.875 5.03516 12.875H12.9102C13.6484 12.875 14.2227 12.3008 14.2227 11.5625V10.3594C14.25 9.70312 14.0312 9.10156 13.7031 8.58203ZM12.9375 11.5625H5.0625V10.3594C5.0625 9.34766 5.85547 8.52734 6.83984 8.5C7.52344 8.80078 8.26172 8.9375 9 8.9375C9.71094 8.9375 10.4492 8.80078 11.1328 8.5C12.1172 8.52734 12.9375 9.34766 12.9375 10.3594V11.5625ZM15.4531 6.75H14.7969C14.3047 6.75 13.8672 6.91406 13.5117 7.16016C13.8672 7.43359 14.1953 7.76172 14.4414 8.14453C14.5508 8.11719 14.6602 8.0625 14.7695 8.0625H15.4258C15.9727 8.0625 16.4102 8.52734 16.4102 9.04688C16.4102 9.42969 16.7109 9.70312 17.0664 9.70312C17.4492 9.70312 17.7227 9.42969 17.7227 9.04688C17.75 7.78906 16.7109 6.75 15.4531 6.75ZM9 6.75C10.668 6.75 12.0625 5.38281 12.0625 3.6875C12.0625 2.01953 10.668 0.625 9 0.625C7.30469 0.625 5.9375 2.01953 5.9375 3.6875C5.9375 5.38281 7.30469 6.75 9 6.75ZM9 1.9375C9.95703 1.9375 10.75 2.73047 10.75 3.6875C10.75 4.67188 9.95703 5.4375 9 5.4375C8.01562 5.4375 7.25 4.67188 7.25 3.6875C7.25 2.73047 8.01562 1.9375 9 1.9375ZM4.46094 7.16016C4.10547 6.91406 3.66797 6.75 3.20312 6.75H2.54688C1.26172 6.75 0.25 7.78906 0.25 9.04688C0.25 9.42969 0.523438 9.70312 0.90625 9.70312C1.26172 9.70312 1.5625 9.42969 1.5625 9.04688C1.5625 8.52734 2 8.0625 2.54688 8.0625H3.20312C3.3125 8.0625 3.42188 8.11719 3.53125 8.14453C3.77734 7.76172 4.10547 7.43359 4.46094 7.16016Z" fill="#4C5E73"/>
</svg>
