<svg width="42" height="42" viewBox="0 0 42 42" fill="none" xmlns="http://www.w3.org/2000/svg">
<path d="M41.1455 21C41.1455 32.3258 32.0427 41.5 20.8228 41.5C9.6028 41.5 0.5 32.3258 0.5 21C0.5 9.67416 9.6028 0.5 20.8228 0.5C32.0427 0.5 41.1455 9.67416 41.1455 21Z" fill="#FFC600" stroke="#FFA600"/>
<path d="M22.7928 19.013C23.9184 10.1589 29.0771 4.54001 31.7972 3.12109C50.3689 15.8914 40.2389 37.1751 27.8578 40.8643C18.7573 43.576 12.1 40.486 9.28613 38.3103C13.507 36.8914 21.3859 30.0806 22.7928 19.013Z" fill="#FFA600"/>
<path d="M26.23 7.15402C26.6281 7.15402 27.0379 7.46498 27.0926 7.94913C27.1355 8.30339 27.1511 8.88988 27.1238 9.57083C27.4399 9.46456 27.7053 9.41732 27.7053 9.41732C27.7053 9.41732 27.8653 9.40158 28.1346 9.40158C28.9347 9.40158 30.6794 9.54328 31.8425 10.6848C33.388 12.2041 33.2983 13.2118 32.9431 13.6723C32.6387 14.0659 31.8385 14.0935 31.6122 14.0935C31.5731 14.0935 31.5536 14.0935 31.5536 14.0935C31.5536 14.0935 31.5341 14.0935 31.499 14.0935C31.175 14.0935 29.4734 14.0345 27.5843 12.9087C27.2448 12.708 26.9794 12.5033 26.7647 12.3065C26.7101 12.523 26.6437 12.7316 26.5735 12.9245C26.5422 13.0032 26.4798 13.1685 26.4486 13.2433C26.4408 13.2393 26.433 13.2354 26.4251 13.2275C26.5618 13.322 26.6945 13.4204 26.8272 13.5228C27.4204 13.9833 27.9824 14.5265 28.4976 15.1563C28.5327 15.2114 28.5718 15.2704 28.6069 15.3255C32.7987 22.0288 27.6585 33.9791 15.208 35.0261C14.8802 35.0615 14.5641 35.0772 14.2596 35.0772C13.3073 35.0772 12.4799 34.9159 11.7695 34.6325C9.38093 33.6917 8.33885 31.4284 8.49887 29.6335C8.74866 26.8388 10.3215 27.016 10.3996 21.3282C10.4855 15.1681 15.5827 11.4641 20.7073 11.4641C22.1241 11.4641 23.5409 11.7475 24.8562 12.338C24.8718 12.3458 24.8874 12.3537 24.9069 12.3616C25.2933 11.1256 25.4767 9.12998 25.4299 8.46871C25.3635 7.5319 25.789 7.15402 26.23 7.15402ZM26.23 6.54785C25.8592 6.54785 25.5158 6.69743 25.2621 6.97296C25.0318 7.22094 24.7742 7.68934 24.8288 8.50807C24.864 9.00402 24.7469 10.4092 24.501 11.535C23.3067 11.0863 22.0343 10.858 20.7112 10.858C19.3569 10.858 18.0221 11.0981 16.7419 11.5704C15.4461 12.0506 14.2791 12.7434 13.2683 13.629C12.2067 14.5619 11.3714 15.6719 10.7821 16.9275C10.1498 18.2698 9.81807 19.7498 9.79855 21.3203C9.75172 24.6582 9.18188 25.8666 8.68231 26.9372C8.33494 27.6812 8.00319 28.3818 7.89781 29.5784C7.80024 30.6451 8.07344 31.7787 8.65889 32.7667C9.31458 33.8728 10.3137 34.7112 11.5471 35.1993C12.3628 35.522 13.2761 35.6834 14.2557 35.6834C14.5836 35.6834 14.9192 35.6637 15.2627 35.6283C16.9293 35.4866 18.5334 35.1481 20.0243 34.6246C21.4372 34.1286 22.7603 33.4555 23.9624 32.6329C26.1988 31.0978 28.0019 29.0352 29.1728 26.6617C30.1291 24.7251 30.6403 22.635 30.6442 20.6157C30.6481 18.5453 30.1173 16.6048 29.1143 14.9988C29.0714 14.9319 29.0362 14.8729 28.9972 14.8178L28.9816 14.7902L28.9621 14.7666C28.7123 14.4596 28.4469 14.1722 28.1698 13.8967C29.8207 14.6524 31.2024 14.6957 31.499 14.6957C31.5224 14.6957 31.5419 14.6957 31.5536 14.6957C31.5692 14.6957 31.5888 14.6957 31.6161 14.6957C32.1 14.6957 32.9821 14.6091 33.4231 14.0384C33.6144 13.7904 33.9032 13.2512 33.6925 12.4206C33.5207 11.7357 33.0407 11.0036 32.2679 10.2439C30.9799 8.97647 29.1299 8.78754 28.1424 8.78754C27.9629 8.78754 27.8263 8.79541 27.7443 8.79934C27.7404 8.44115 27.7248 8.11839 27.6975 7.87434C27.6038 7.1186 26.9755 6.54785 26.23 6.54785Z" fill="#670000"/>
<path d="M24.0053 19.2929C22.6471 21.3554 22.0031 23.7958 21.203 26.1379C20.4068 28.4799 19.3686 30.8573 17.4756 32.4318C16.094 33.5812 14.3494 34.2149 12.5852 34.518C12.312 34.5652 12.0388 34.6046 11.7656 34.6361C12.7023 35.0061 13.8459 35.1714 15.2041 35.0258C27.6546 33.9787 32.7948 22.0285 28.603 15.3252C26.753 16.199 25.1372 17.5767 24.0053 19.2929Z" fill="#FF952E"/>
<path d="M17.4795 32.4316C19.3725 30.8571 20.4107 28.4796 21.2069 26.1376C22.0031 23.7956 22.6471 21.3552 24.0092 19.2926C25.141 17.5764 26.7569 16.2027 28.6069 15.3249C28.5717 15.2698 28.5366 15.2108 28.4976 15.1557C27.9824 14.5298 27.4243 13.9866 26.8271 13.5222C26.2027 13.038 25.5431 12.6444 24.8561 12.3374C18.7831 9.60174 10.5089 13.4631 10.3957 21.3276C10.3176 27.0154 8.74473 26.8383 8.49494 29.6329C8.33492 31.4318 9.37701 33.6911 11.7656 34.6319C12.0388 34.6004 12.312 34.561 12.5852 34.5138C14.3494 34.2107 16.0979 33.5809 17.4795 32.4316Z" fill="#FFC300"/>
<path d="M26.5694 12.9241C27.147 11.3771 27.1978 8.8698 27.0924 7.94873C26.9753 6.9332 25.3048 6.67735 25.4258 8.46437C25.4727 9.12565 25.2892 11.1252 24.9028 12.3612C25.4414 12.6052 25.8981 12.8847 26.4445 13.2429C26.4796 13.1681 26.5421 13.0028 26.5694 12.9241Z" fill="#FF952E"/>
<path d="M26.0739 10.3695C26.0739 10.3695 25.4807 11.6527 27.5805 12.9084C29.6802 14.164 31.5498 14.0932 31.5498 14.0932C31.5498 14.0932 32.588 14.1325 32.9392 13.672C33.2905 13.2115 33.3881 12.2038 31.8386 10.6844C30.293 9.16507 27.7014 9.41699 27.7014 9.41699C27.7014 9.41699 26.2144 9.68465 26.0739 10.3695Z" fill="#78C300"/>
<path d="M16.2673 17.0145C16.435 16.3757 15.8446 15.6638 14.9486 15.4245C14.0526 15.1852 13.1902 15.5091 13.0225 16.1479C12.8547 16.7868 13.4451 17.4987 14.3411 17.738C15.2372 17.9773 16.0995 17.6534 16.2673 17.0145Z" fill="#FF6600"/>
<path d="M16.6757 16.7384C16.7927 16.4274 17.2455 15.7661 17.6475 16.0928C18.0261 16.3998 17.4875 17.0572 17.3001 17.317C17.0386 17.6791 17.6397 18.0294 17.8973 17.6673C18.1549 17.3091 18.4242 16.9076 18.4554 16.4549C18.4827 16.0613 18.3032 15.6677 17.9597 15.467C17.105 14.9631 16.2893 15.7976 16.0043 16.5534C15.8521 16.9745 16.5195 17.1556 16.6757 16.7384Z" fill="#670000"/>
<path d="M24.8356 22.8883C25.2962 22.4182 25.135 21.5046 24.4758 20.8476C23.8165 20.1906 22.9087 20.0391 22.4481 20.5092C21.9876 20.9793 22.1487 21.8929 22.808 22.5499C23.4673 23.2068 24.3751 23.3583 24.8356 22.8883Z" fill="#FF6600"/>
<path d="M22.9592 20.6396C23.5018 20.0453 23.775 18.8132 22.9944 18.274C22.6236 18.0181 22.1357 18.085 21.7845 18.3409C21.4293 18.5967 21.2302 19.0258 21.0624 19.4194C20.8868 19.8248 21.48 20.183 21.6596 19.7697C21.7806 19.4863 22.124 18.5889 22.5846 18.8329C22.7758 18.9353 22.7992 19.258 22.7836 19.447C22.7641 19.7107 22.6509 19.9508 22.4753 20.1437C22.1708 20.4743 22.6587 20.9703 22.9592 20.6396Z" fill="#670000"/>
<path d="M18.4317 18.8565C18.4785 19.4705 19.064 19.9114 19.6572 19.687C19.9734 19.565 19.8367 19.0493 19.5167 19.1714C19.2669 19.2658 18.9859 19.1517 18.9625 18.8604C18.9352 18.514 18.4044 18.5101 18.4317 18.8565Z" fill="#670000"/>
</svg>
