<svg width="83" height="82" viewBox="0 0 83 82" fill="none" xmlns="http://www.w3.org/2000/svg">
<g filter="url(#filter0_dd)">
<circle cx="41" cy="39" r="36.5" fill="#FFC600" stroke="#FFA600"/>
<path d="M44.5 35.5C46.5 19.9 55.6667 10 60.5 7.5C93.5 30 75.5 67.5 53.5 74C37.3292 78.7777 25.5 73.3333 20.5 69.5C28 67 42 55 44.5 35.5Z" fill="#FFA600"/>
<path d="M50.6973 14.5731C51.4048 14.5731 52.1348 15.1255 52.2358 15.9822C52.3144 16.6022 52.3369 17.6506 52.292 18.8455C52.8535 18.6539 53.3251 18.575 53.3251 18.575C53.3251 18.575 53.6171 18.5524 54.0888 18.5524C55.515 18.5524 58.6032 18.8004 60.6695 20.8183C63.4209 23.5012 63.2524 25.2823 62.6236 26.0939C62.0845 26.7928 60.6695 26.8379 60.2653 26.8379C60.1979 26.8379 60.153 26.8379 60.153 26.8379C60.153 26.8379 60.1193 26.8379 60.0519 26.8379C59.4792 26.8379 56.4583 26.7365 53.1118 24.7412C52.5166 24.3805 52.0337 24.031 51.6631 23.6703C51.562 24.0536 51.4497 24.4256 51.3262 24.7637C51.2925 24.8652 51.1802 25.1357 51.1016 25.3274C51.3262 25.4852 51.5508 25.643 51.7754 25.8234C52.831 26.635 53.8193 27.5932 54.7401 28.7092C54.8075 28.8107 54.8749 28.9121 54.931 29.0136C62.3765 40.8613 53.2465 61.964 31.1572 63.8127C30.5732 63.8691 30.0117 63.9029 29.4727 63.9029C27.7882 63.9029 26.317 63.6098 25.0593 63.1251C20.8256 61.4567 18.9726 57.4662 19.2534 54.2872C19.7026 49.3497 23.4085 49.5977 22.6224 39.6213C23.1951 28.8445 32.0668 22.2161 41.062 22.2161C43.5101 22.2161 45.9695 22.7121 48.2829 23.7379C48.2941 23.7492 48.3053 23.7492 48.3278 23.7605C48.9904 21.5623 49.3834 18.0451 49.3048 16.9066C49.1588 15.2382 49.9225 14.5731 50.6973 14.5731ZM50.6973 13.4346C50.0235 13.4346 49.3946 13.7051 48.923 14.2011C48.5075 14.652 48.0358 15.4862 48.1369 16.963C48.193 17.7408 47.9684 20.1644 47.5192 22.1935C45.4642 21.4383 43.2855 21.055 41.0395 21.055C38.6588 21.055 36.3005 21.4834 34.0433 22.3288C31.7748 23.1855 29.7085 24.4143 27.9117 25.9925C26.0363 27.6383 24.5315 29.5998 23.4422 31.8205C22.2743 34.1765 21.6117 36.7806 21.4657 39.5311C21.4657 39.5762 21.4657 39.6326 21.4657 39.6777C21.9261 45.5621 20.8031 47.5686 19.7138 49.5076C19.0063 50.7814 18.2876 52.0778 18.0967 54.1745C17.9282 56.0796 18.4111 58.0862 19.4555 59.8447C20.6234 61.8062 22.409 63.3055 24.6101 64.1735C26.07 64.7484 27.6871 65.0302 29.439 65.0302C30.0229 65.0302 30.6181 64.9964 31.2358 64.9287C34.2005 64.6807 37.0529 64.0833 39.7032 63.1476C42.2187 62.2684 44.5658 61.0847 46.7107 59.6193C50.6861 56.9025 53.8979 53.2501 55.9866 49.0454C57.6936 45.6184 58.592 41.9097 58.6032 38.3362C58.6145 34.6725 57.6711 31.2231 55.8743 28.3823C55.7957 28.2696 55.7284 28.1569 55.661 28.0554C55.6385 28.0216 55.6161 27.9878 55.5936 27.9652C55.223 27.5143 54.8412 27.0972 54.4481 26.6801C57.2444 27.875 59.5353 27.9539 60.0519 27.9539C60.0968 27.9539 60.1305 27.9539 60.153 27.9539C60.1754 27.9539 60.2203 27.9539 60.2653 27.9539C61.1412 27.9539 62.7246 27.7961 63.522 26.7703C63.8701 26.3194 64.3979 25.3499 64.0161 23.8506C63.7016 22.6332 62.8482 21.3255 61.4669 19.9728C59.1647 17.7182 55.8631 17.3801 54.1 17.3801C53.8305 17.3801 53.6171 17.3913 53.4599 17.3913C53.4487 16.7826 53.4262 16.2415 53.3701 15.8244C53.2016 14.4717 52.0562 13.4346 50.6973 13.4346Z" fill="#670000"/>
<path d="M46.7556 36.0136C44.3412 39.6548 43.1957 43.9722 41.7808 48.1094C40.3658 52.2465 38.5241 56.44 35.1663 59.2244C32.7182 61.2535 29.6187 62.3695 26.4855 62.9106C26.0026 62.9895 25.5198 63.0571 25.0256 63.1135C26.6877 63.7673 28.7203 64.0604 31.1347 63.8011C53.2353 61.9524 62.3541 40.8497 54.9086 29.002C51.6295 30.5576 48.7546 32.9813 46.7556 36.0136Z" fill="#FF952E"/>
<path d="M35.1663 59.2247C38.5241 56.4404 40.3658 52.2469 41.7808 48.1098C43.1957 43.9726 44.3412 39.6664 46.7556 36.014C48.7658 32.9816 51.6294 30.558 54.9086 29.0023C54.8412 28.9009 54.7851 28.7994 54.7177 28.698C53.8081 27.5932 52.8086 26.6351 51.753 25.8121C50.6524 24.9554 49.4733 24.2678 48.2604 23.7154C37.4797 18.8906 23.3299 25.8911 22.6 39.5988C23.3748 49.5752 19.6689 49.3272 19.231 54.2647C18.9502 57.4436 20.7919 61.4342 25.0369 63.1026C25.5197 63.0462 26.0139 62.9786 26.4968 62.8997C29.6187 62.3699 32.7182 61.2539 35.1663 59.2247Z" fill="#FFC600"/>
<path d="M51.3037 24.7639C52.3256 22.0359 52.4267 17.6057 52.2358 15.9824C52.0224 14.19 49.0577 13.7391 49.2823 16.8955C49.3609 18.0679 48.9566 21.6977 48.2716 23.8847C49.2262 24.313 50.147 24.8541 51.0117 25.5305C51.0679 25.3952 51.2476 24.9105 51.3037 24.7639Z" fill="#FF952E"/>
<path d="M50.4278 20.2551C50.4278 20.2551 49.3722 22.5209 53.1005 24.7417C56.8289 26.9624 60.1417 26.8384 60.1417 26.8384C60.1417 26.8384 61.9834 26.906 62.6123 26.0944C63.2412 25.2828 63.4096 23.5016 60.6583 20.8187C57.9069 18.1358 53.3251 18.5642 53.3251 18.5642C53.3251 18.5642 50.6748 19.0489 50.4278 20.2551Z" fill="#AAC300"/>
<path d="M32.9087 31.9631C33.2072 30.8316 32.1563 29.5707 30.5615 29.1468C28.9667 28.7228 27.4318 29.2964 27.1333 30.4278C26.8348 31.5593 27.8857 32.8202 29.4805 33.2442C31.0754 33.6681 32.6102 33.0946 32.9087 31.9631Z" fill="#FF6600"/>
<path d="M33.639 31.4826C33.8524 30.9303 34.6497 29.7579 35.3684 30.3328C36.0422 30.8739 35.0764 32.0463 34.7508 32.5085C34.2903 33.151 35.3572 33.771 35.8176 33.1285C36.278 32.4972 36.7609 31.787 36.8171 30.9754C36.862 30.2765 36.5476 29.5775 35.9411 29.2281C34.4251 28.3375 32.9652 29.8143 32.4599 31.1557C32.1679 31.8997 33.3583 32.2266 33.639 31.4826Z" fill="#670000"/>
<path d="M48.1581 42.3714C48.9776 41.5389 48.6906 39.9204 47.5171 38.7566C46.3437 37.5927 44.7281 37.3241 43.9086 38.1566C43.0891 38.9892 43.3761 40.6076 44.5496 41.7715C45.7231 42.9353 47.3387 43.2039 48.1581 42.3714Z" fill="#FF6600"/>
<path d="M44.8241 38.3926C45.7899 37.3443 46.2728 35.1573 44.8802 34.1992C44.2177 33.7482 43.353 33.861 42.7241 34.3119C42.0952 34.7628 41.7359 35.5181 41.4326 36.217C41.1182 36.9385 42.1738 37.5697 42.4995 36.837C42.7129 36.341 43.3305 34.7515 44.1391 35.1799C44.4872 35.3603 44.5209 35.9352 44.4984 36.2734C44.4647 36.7355 44.2626 37.1639 43.9482 37.5021C43.4203 38.0996 44.2851 38.9788 44.8241 38.3926Z" fill="#670000"/>
<path d="M36.7609 35.2362C36.8395 36.3296 37.8839 37.1075 38.9395 36.7016C39.501 36.4875 39.254 35.5631 38.6925 35.7885C38.2545 35.9576 37.7491 35.7547 37.7042 35.2362C37.6593 34.6274 36.716 34.6162 36.7609 35.2362Z" fill="#670000"/>
</g>
<defs>
<filter id="filter0_dd" x="0" y="0" width="82.6298" height="82" filterUnits="userSpaceOnUse" color-interpolation-filters="sRGB">
<feFlood flood-opacity="0" result="BackgroundImageFix"/>
<feColorMatrix in="SourceAlpha" type="matrix" values="0 0 0 0 0 0 0 0 0 0 0 0 0 0 0 0 0 0 127 0"/>
<feOffset dy="2"/>
<feGaussianBlur stdDeviation="2"/>
<feColorMatrix type="matrix" values="0 0 0 0 0.376471 0 0 0 0 0.380392 0 0 0 0 0.439216 0 0 0 0.16 0"/>
<feBlend mode="normal" in2="BackgroundImageFix" result="effect1_dropShadow"/>
<feColorMatrix in="SourceAlpha" type="matrix" values="0 0 0 0 0 0 0 0 0 0 0 0 0 0 0 0 0 0 127 0"/>
<feOffset/>
<feGaussianBlur stdDeviation="0.5"/>
<feColorMatrix type="matrix" values="0 0 0 0 0.156863 0 0 0 0 0.160784 0 0 0 0 0.239216 0 0 0 0.04 0"/>
<feBlend mode="normal" in2="effect1_dropShadow" result="effect2_dropShadow"/>
<feBlend mode="normal" in="SourceGraphic" in2="effect2_dropShadow" result="shape"/>
</filter>
</defs>
</svg>
