<svg width="1440" height="900" viewBox="0 0 1440 900" fill="none" xmlns="http://www.w3.org/2000/svg">
<g opacity="0.15" clip-path="url(#clip0)">
<path d="M1264.24 -194.535C1320 -164.67 1372.75 -119.275 1403.33 -58.9477C1433.31 0.782257 1440.5 76.042 1417.12 138.758C1393.74 202.072 1339.78 252.843 1279.83 309.586C1219.88 366.33 1154.53 429.046 1068.8 457.119C983.064 485.192 876.349 479.219 841.577 414.114C807.404 349.008 844.575 225.367 816.397 126.215C788.819 27.0634 695.293 -48.1963 713.279 -82.2424C731.265 -115.691 860.162 -109.121 941.098 -131.221C1022.63 -153.321 1055.61 -204.689 1102.37 -222.608C1148.53 -240.527 1207.89 -224.997 1264.24 -194.535Z" fill="#313C49"/>
<path d="M341.245 570.08C393.282 609.376 419.749 681.717 422.44 748.252C424.683 814.341 403.151 874.625 368.16 914.814C333.619 955.003 285.619 975.544 244.349 1001.44C203.527 1027.79 168.985 1059.94 121.883 1077.8C74.3319 1095.66 13.7719 1099.68 -30.6389 1074.68C-75.4982 1049.67 -104.208 995.639 -117.217 940.267C-130.675 884.449 -128.432 827.291 -127.984 752.718C-127.086 678.591 -127.535 586.156 -84.0215 543.734C-40.5079 501.759 46.9678 508.904 129.509 516.048C212.05 523.193 289.657 530.338 341.245 570.08Z" fill="#313C49"/>
<path d="M89.9134 1057.18C64.5733 997.229 77.9642 921.398 109.031 862.437C140.263 804.085 189.171 762.602 239.646 745.224C289.734 727.623 341.613 733.739 390.355 731.864C438.933 729.379 484.985 718.739 534.743 726.729C584.889 734.943 639.353 761.624 665.262 805.399C691.559 849.397 689.3 910.489 672.772 964.922C656.409 1019.96 625.775 1068.35 587.954 1132.71C549.968 1196.45 503.958 1276.73 444.98 1291.8C386.226 1306.48 314.056 1256.72 246.16 1209.42C178.264 1162.13 114.641 1117.29 89.9134 1057.18Z" fill="#1A2129"/>
<path d="M979.044 1175.49L979.036 1175.49L979.027 1175.48C959.027 1155.78 950.597 1122.64 945.22 1083.83C943.247 1069.59 941.695 1054.69 940.113 1039.49C939.546 1034.04 938.974 1028.55 938.377 1023.04C936.122 1002.21 933.518 981.133 929.44 960.933L929.439 960.931C923.631 932.332 914.879 905.485 906.849 880.849C903.622 870.949 900.512 861.407 897.755 852.251C888.072 820.087 882.815 792.866 891.145 770.729L891.15 770.717L891.154 770.706C899.263 748.312 921.031 730.549 948.9 711.599C955.611 707.035 962.665 702.41 969.934 697.643C992.653 682.744 1017.48 666.465 1040.54 646.376L1040.55 646.371C1061.54 627.946 1081.07 606.297 1100.19 585.105C1108.56 575.828 1116.85 566.639 1125.15 557.846C1152.54 528.83 1180.07 504.065 1211.32 493.529L1211.33 493.525C1273.81 471.992 1352.08 507.139 1382.24 568.656C1397.32 599.421 1400.54 636.849 1403.71 676.613L1403.88 678.72C1406.98 717.71 1410.25 758.744 1425.15 796.925L1425.16 796.935C1439.01 831.88 1462.69 864.377 1485.73 895.992C1488.3 899.514 1490.86 903.025 1493.39 906.526C1518.8 941.61 1541.92 975.777 1549.23 1011.69L1549.23 1011.7L1549.23 1011.71C1564.28 1082.96 1516.24 1162.54 1447.22 1193.16L1447.21 1193.16C1412.52 1208.68 1372.52 1212.02 1329.75 1211.19C1308.45 1210.78 1286.52 1209.33 1264.24 1207.86L1264.01 1207.85C1241.68 1206.38 1219.01 1204.89 1196.39 1204.41C1176.42 1203.98 1156.53 1204.31 1137.25 1204.63C1134.82 1204.67 1132.39 1204.71 1129.97 1204.75C1108.43 1205.09 1087.76 1205.3 1068.65 1204.29C1030.31 1202.27 998.768 1195.38 979.044 1175.49Z" stroke="#313C49" stroke-width="4"/>
<path d="M-71.5008 255.17L-71.4924 255.178L-71.4842 255.186C-49.735 277.098 -13.1704 286.316 29.5778 292.192C45.2664 294.349 61.687 296.045 78.4216 297.774C84.4286 298.395 90.4761 299.019 96.5447 299.671C119.488 302.135 142.691 304.981 164.929 309.436L164.931 309.436C196.418 315.782 225.969 325.339 253.1 334.114C264.006 337.642 274.522 341.043 284.615 344.058C320.037 354.64 350.086 360.41 374.545 351.277L374.556 351.273L374.568 351.269C399.305 342.381 418.9 318.535 439.768 288.085C444.798 280.745 449.895 273.034 455.147 265.087C471.555 240.26 489.476 213.145 511.592 187.948L511.598 187.942C531.884 165.012 555.715 143.677 579.053 122.783C589.272 113.634 599.397 104.569 609.089 95.4919C641.05 65.5578 668.359 35.4488 679.978 1.25292L679.982 1.24016C703.729 -67.1265 664.976 -152.759 597.133 -185.763C563.204 -202.269 521.936 -205.786 478.147 -209.25L475.84 -209.433C432.886 -212.827 387.718 -216.397 345.694 -232.67L345.684 -232.674C307.221 -247.805 271.45 -273.668 236.623 -298.849C232.745 -301.653 228.879 -304.448 225.022 -307.22C186.386 -334.98 148.718 -360.282 109.105 -368.275L109.097 -368.276L109.09 -368.278C30.492 -384.754 -57.2429 -332.175 -90.9956 -256.683L-90.9981 -256.677C-108.11 -218.727 -111.786 -174.985 -110.87 -128.232C-110.414 -104.947 -108.822 -80.9739 -107.206 -56.6354L-107.189 -56.3817C-105.568 -31.9727 -103.927 -7.20178 -103.401 17.5116C-102.935 39.3311 -103.297 61.0729 -103.647 82.1399C-103.692 84.802 -103.736 87.4533 -103.778 90.0927C-104.155 113.641 -104.382 136.231 -103.273 157.128C-101.048 199.029 -93.4574 233.56 -71.5008 255.17Z" stroke="#313C49" stroke-width="4"/>
<rect y="682" width="1440" height="338" fill="url(#paint0_linear)"/>
</g>
<defs>
<linearGradient id="paint0_linear" x1="720" y1="682" x2="720" y2="1020" gradientUnits="userSpaceOnUse">
<stop stop-color="#2C1611" stop-opacity="0"/>
<stop offset="1" stop-color="#2C1611"/>
</linearGradient>
<clipPath id="clip0">
<rect width="1440" height="1020" fill="white"/>
</clipPath>
</defs>
</svg>
