<svg width="154" height="135" viewBox="0 0 154 135" fill="none" xmlns="http://www.w3.org/2000/svg">
<g opacity="0.21">
<path d="M77.0067 18.0109C85.5391 24.4838 89.8788 36.3998 90.3202 47.3597C90.6879 58.2459 87.1573 68.176 81.42 74.796C75.7563 81.416 67.8859 84.7996 61.1189 89.0659C54.4254 93.4057 48.7616 98.7017 41.0384 101.644C33.2415 104.586 23.3116 105.248 16.0297 101.129C8.6742 97.0099 3.96668 88.1096 1.83359 78.9887C-0.373058 69.7942 -0.00528139 60.3791 0.0682735 48.0952C0.215383 35.8849 0.141828 20.6589 7.27665 13.6711C14.4115 6.7568 28.7547 7.93369 42.2888 9.11059C55.8229 10.2875 68.5479 11.4644 77.0067 18.0109Z" fill="#313C49"/>
<path d="M29.8442 124.505L29.8525 124.513L29.8524 124.513C33.2089 127.926 38.6455 129.17 45.5102 129.535C48.9158 129.716 52.604 129.679 56.4726 129.617C56.9057 129.61 57.3409 129.603 57.7782 129.595C61.2365 129.538 64.8204 129.478 68.4173 129.555L29.8442 124.505ZM29.8442 124.505C26.4239 121.107 24.9252 115.316 23.9588 108.281C23.6063 105.714 23.3294 103.032 23.0458 100.286C22.9437 99.2962 22.8407 98.2985 22.733 97.2947C22.3279 93.5201 21.858 89.682 21.1201 85.9961L21.1199 85.9949M29.8442 124.505L21.1199 85.9949M21.1199 85.9949C20.0698 80.7805 18.4809 75.864 17.0359 71.3928C16.4597 69.61 15.9064 67.898 15.4193 66.2662C13.6773 60.4306 12.8073 55.6978 14.2194 51.9133L14.2195 51.9133M21.1199 85.9949L14.2195 51.9133M14.2195 51.9133L14.2237 51.9016M14.2195 51.9133L14.2237 51.9016M14.2237 51.9016C15.6008 48.0661 19.331 44.9538 24.348 41.5131C25.5358 40.6985 26.7906 39.8686 28.0882 39.0105C32.1725 36.3093 36.6803 33.3281 40.8564 29.66L40.8593 29.6574M14.2237 51.9016L40.8593 29.6574M40.8593 29.6574C44.6553 26.2966 48.2032 22.331 51.6468 18.482C53.1427 16.8101 54.6188 15.1601 56.0871 13.5913C60.9993 8.34264 65.8456 3.96912 71.2894 2.11806L71.2958 2.11585M40.8593 29.6574L71.2958 2.11585M71.2958 2.11585C82.1705 -1.66412 95.8957 4.5167 101.182 15.391C103.827 20.832 104.402 27.4792 104.974 34.7051L105.007 35.1229C105.562 42.1551 106.155 49.6633 108.863 56.6623L108.865 56.6673M71.2958 2.11585L108.865 56.6673M108.865 56.6673C111.383 63.0727 115.683 69.0227 119.81 74.7341C120.272 75.3734 120.732 76.0096 121.187 76.6432C125.757 83.0082 129.821 89.0871 131.101 95.4348L131.102 95.4422M108.865 56.6673L131.102 95.4422M131.102 95.4422C133.733 108 125.318 122.134 113.158 127.575L113.156 127.576M131.102 95.4422L113.156 127.576M113.156 127.576C107.061 130.326 99.9989 130.932 92.3511 130.783M113.156 127.576L92.3511 130.783M92.3511 130.783C88.5428 130.708 84.6189 130.447 80.616 130.181M92.3511 130.783L80.616 130.181M80.616 130.181L80.5828 130.179M80.616 130.181L80.5828 130.179M80.5828 130.179C76.5766 129.913 72.4936 129.642 68.4175 129.555L80.5828 130.179Z" stroke="#4C5E73" stroke-width="2"/>
<path d="M43.8077 88.0689C39.6573 78.2117 41.8506 65.743 46.939 56.0479C52.0543 46.4532 60.0647 39.6322 68.332 36.7747C76.5357 33.8806 85.0329 34.8863 93.0162 34.578C100.973 34.1694 108.515 32.4198 116.665 33.7336C124.878 35.0842 133.799 39.4714 138.042 46.6693C142.349 53.9039 141.979 63.9492 139.272 72.8995C136.592 81.9501 131.575 89.9057 125.38 100.488C119.159 110.97 111.623 124.17 101.963 126.647C92.3399 129.061 80.5194 120.88 69.3989 113.103C58.2783 105.326 47.8577 97.953 43.8077 88.0689Z" fill="#8093A8"/>
</g>
</svg>
