<svg width="47" height="46" viewBox="0 0 47 46" fill="none" xmlns="http://www.w3.org/2000/svg">
<path d="M31.9378 2.88227C32.5222 2.88227 33.1237 3.33487 33.2039 4.03954C33.267 4.55516 33.2899 5.40879 33.2498 6.39991C33.7138 6.24523 34.1034 6.17648 34.1034 6.17648C34.1034 6.17648 34.3383 6.15356 34.7336 6.15356C35.9081 6.15356 38.4689 6.35981 40.1762 8.02123C42.4449 10.2326 42.3131 11.6993 41.7918 12.3696C41.3449 12.9425 40.1705 12.9826 39.8382 12.9826C39.7809 12.9826 39.7522 12.9826 39.7522 12.9826C39.7522 12.9826 39.7236 12.9826 39.672 12.9826C39.1965 12.9826 36.6987 12.8967 33.9258 11.2581C33.4274 10.966 33.0378 10.6681 32.7227 10.3816C32.6425 10.6967 32.5451 11.0003 32.442 11.2811C32.3961 11.3956 32.3045 11.6363 32.2586 11.7451C32.2472 11.7394 32.2357 11.7337 32.2243 11.7222C32.4248 11.8597 32.6196 12.0029 32.8144 12.1519C33.6852 12.8222 34.5102 13.6128 35.2664 14.5294C35.318 14.6096 35.3752 14.6956 35.4268 14.7758C41.5798 24.5324 34.0347 41.9258 15.759 43.4497C15.2777 43.5012 14.8137 43.5242 14.3668 43.5242C12.9689 43.5242 11.7544 43.2893 10.7117 42.8768C7.20551 41.5075 5.67585 38.2133 5.91074 35.6009C6.2774 31.5333 8.58621 31.7911 8.70079 23.5126C8.82683 14.5466 16.309 9.15558 23.8312 9.15558C25.9109 9.15558 27.9905 9.56808 29.9212 10.4274C29.9441 10.4389 29.967 10.4503 29.9957 10.4618C30.5628 8.66289 30.8321 5.75826 30.7634 4.79578C30.666 3.43226 31.2904 2.88227 31.9378 2.88227ZM31.9378 2C31.3936 2 30.8894 2.2177 30.517 2.61874C30.179 2.97967 29.8009 3.66142 29.8811 4.85307C29.9327 5.57493 29.7608 7.6202 29.3998 9.25871C27.6468 8.6056 25.7791 8.27331 23.8369 8.27331C21.849 8.27331 19.8896 8.62278 18.0105 9.31027C16.1085 10.0092 14.3955 11.0175 12.9116 12.3066C11.3533 13.6643 10.1273 15.2799 9.26224 17.1075C8.33413 19.0611 7.84716 21.2152 7.81852 23.5011C7.74977 28.3594 6.91333 30.1182 6.18001 31.6765C5.67012 32.7593 5.18315 33.779 5.02847 35.5207C4.88524 37.0732 5.28627 38.7232 6.14563 40.1612C7.10811 41.7711 8.57475 42.9914 10.3851 43.7018C11.5825 44.1715 12.9231 44.4064 14.3611 44.4064C14.8423 44.4064 15.335 44.3778 15.8392 44.3262C18.2855 44.12 20.6401 43.6273 22.8286 42.8653C24.9025 42.1435 26.8447 41.1638 28.6092 39.9664C31.892 37.7321 34.5388 34.7301 36.2575 31.2754C37.6611 28.4568 38.4116 25.4146 38.4174 22.4756C38.4231 19.4621 37.644 16.6377 36.1716 14.3003C36.1086 14.2029 36.057 14.1169 35.9997 14.0367L35.9768 13.9966L35.9482 13.9623C35.5815 13.5154 35.1919 13.0972 34.7852 12.6961C37.2085 13.7961 39.2366 13.8591 39.672 13.8591C39.7064 13.8591 39.7351 13.8591 39.7522 13.8591C39.7752 13.8591 39.8038 13.8591 39.8439 13.8591C40.5543 13.8591 41.8491 13.7331 42.4965 12.9024C42.7772 12.5415 43.2011 11.7566 42.8918 10.5477C42.6397 9.55089 41.935 8.48529 40.8007 7.37958C38.9101 5.53482 36.1945 5.25983 34.7451 5.25983C34.4815 5.25983 34.281 5.27129 34.1607 5.27702C34.155 4.75567 34.132 4.28589 34.0919 3.93069C33.9544 2.83071 33.0321 2 31.9378 2Z" fill="#670000"/>
<path d="M28.6722 20.5503C26.6785 23.5523 25.7332 27.1043 24.5588 30.5131C23.39 33.9219 21.8661 37.3822 19.0875 39.6738C17.0594 41.3467 14.4986 42.2691 11.909 42.7102C11.508 42.779 11.107 42.8363 10.7059 42.8821C12.0809 43.4206 13.7595 43.6613 15.7532 43.4493C34.0289 41.9254 41.5741 24.532 35.4211 14.7754C32.7055 16.0472 30.3337 18.0524 28.6722 20.5503Z" fill="#FF952E"/>
<path d="M19.0933 39.6744C21.8718 37.3827 23.3958 33.9224 24.5645 30.5136C25.7332 27.1048 26.6785 23.5528 28.678 20.5508C30.3394 18.0529 32.7112 16.0535 35.4268 14.7759C35.3752 14.6957 35.3237 14.6098 35.2664 14.5296C34.5101 13.6186 33.6909 12.828 32.8143 12.152C31.8977 11.4473 30.9295 10.8744 29.9212 10.4276C21.0068 6.44586 8.86117 12.0661 8.69503 23.5127C8.58045 31.7912 6.27164 31.5334 5.90498 35.601C5.67009 38.2192 7.19975 41.5076 10.7059 42.8769C11.107 42.8311 11.508 42.7738 11.909 42.705C14.4986 42.2639 17.0652 41.3472 19.0933 39.6744Z" fill="#FFC300"/>
<path d="M32.4362 11.2811C33.2841 9.02955 33.3586 5.38015 33.2039 4.03955C33.0321 2.56145 30.58 2.18907 30.7576 4.79005C30.8264 5.75253 30.5571 8.66289 29.9899 10.4618C30.7805 10.817 31.4508 11.2238 32.2529 11.7451C32.3045 11.6363 32.3961 11.3956 32.4362 11.2811Z" fill="#FF952E"/>
<path d="M31.7085 7.56249C31.7085 7.56249 30.8377 9.43016 33.92 11.2577C37.0022 13.0853 39.7464 12.9822 39.7464 12.9822C39.7464 12.9822 41.2703 13.0395 41.7859 12.3692C42.3016 11.6989 42.4448 10.2322 40.1704 8.02081C37.9017 5.8094 34.0976 6.17606 34.0976 6.17606C34.0976 6.17606 31.9148 6.56563 31.7085 7.56249Z" fill="#78C300"/>
<path d="M17.3135 17.2339C17.5597 16.3041 16.6932 15.2679 15.3779 14.9196C14.0627 14.5713 12.7968 15.0428 12.5506 15.9726C12.3044 16.9025 13.171 17.9386 14.4862 18.2869C15.8014 18.6352 17.0673 18.1638 17.3135 17.2339Z" fill="#FF6600"/>
<path d="M17.9129 16.8327C18.0848 16.3801 18.7493 15.4176 19.3394 15.8931C19.8951 16.34 19.1045 17.2967 18.8295 17.6748C18.4457 18.2019 19.328 18.7118 19.7061 18.1847C20.0842 17.6634 20.4795 17.079 20.5253 16.4202C20.5654 15.8473 20.3019 15.2744 19.7977 14.9822C18.5431 14.2489 17.3457 15.4634 16.9275 16.5634C16.7041 17.1764 17.6837 17.44 17.9129 16.8327Z" fill="#670000"/>
<path d="M29.8911 25.7825C30.5671 25.0983 30.3306 23.7685 29.3629 22.8123C28.3951 21.8561 27.0626 21.6356 26.3866 22.3198C25.7105 23.004 25.9471 24.3337 26.9148 25.2899C27.8826 26.2461 29.2151 26.4666 29.8911 25.7825Z" fill="#FF6600"/>
<path d="M27.1367 22.5095C27.9331 21.6444 28.3341 19.8513 27.1883 19.0664C26.644 18.694 25.9279 18.7914 25.4123 19.1638C24.8909 19.5362 24.5988 20.1606 24.3524 20.7335C24.0946 21.3236 24.9654 21.845 25.229 21.2434C25.4066 20.8309 25.9107 19.5247 26.5867 19.8799C26.8675 20.0289 26.9018 20.4986 26.8789 20.7736C26.8503 21.1575 26.6841 21.5069 26.4263 21.7877C25.9795 22.2689 26.6956 22.9908 27.1367 22.5095Z" fill="#670000"/>
<path d="M20.4909 19.9143C20.5597 20.8081 21.419 21.4497 22.2899 21.1232C22.7539 20.9456 22.5534 20.1951 22.0836 20.3727C21.717 20.5101 21.3045 20.344 21.2701 19.9201C21.23 19.4159 20.4508 19.4102 20.4909 19.9143Z" fill="#670000"/>
</svg>
