<svg width="22" height="25" viewBox="0 0 22 25" fill="none" xmlns="http://www.w3.org/2000/svg">
<path d="M13.4101 10.4321C12.2349 12.2043 11.6774 14.3056 10.9888 16.3192C10.3001 18.3327 9.40372 20.3737 7.76949 21.7289C6.57797 22.7165 5.06944 23.2596 3.54452 23.523C3.3095 23.5614 3.07447 23.5943 2.83398 23.6217C3.6429 23.94 4.63219 24.0826 5.80731 23.9564C16.5638 23.0566 21.0019 12.7859 17.3781 7.01953C15.7822 7.77667 14.383 8.95627 13.4101 10.4321Z" fill="#FF6600"/>
<path d="M7.76931 21.7191C9.40354 20.3639 10.2999 18.323 10.9886 16.3094C11.6773 14.2958 12.2348 12.2 13.4099 10.4224C14.3882 8.94649 15.782 7.76689 17.378 7.00975C17.3452 6.96037 17.3178 6.91099 17.285 6.86161C16.8423 6.32393 16.3559 5.85758 15.8421 5.45706C15.3065 5.04009 14.7326 4.70541 14.1423 4.43657C8.89523 2.08834 2.00849 5.49547 1.65322 12.1671C2.03035 17.0226 0.226678 16.9019 0.0135165 19.305C-0.123125 20.8522 0.773245 22.7945 2.83927 23.6065C3.07429 23.579 3.31478 23.5461 3.54981 23.5077C5.06926 23.2498 6.57779 22.7067 7.76931 21.7191Z" fill="#FF6600"/>
<path d="M15.6232 4.957C16.1206 3.62926 16.1698 1.47306 16.0768 0.682998C15.973 -0.189359 14.5301 -0.408819 14.6394 1.12741C14.6776 1.698 14.4809 3.46466 14.1475 4.52905C14.612 4.73754 15.0602 5.00089 15.4811 5.33008C15.5084 5.26424 15.5959 5.02832 15.6232 4.957Z" fill="#FF6600"/>
<path d="M15.197 2.76488C15.197 2.76488 14.6833 3.86767 16.4979 4.94851C18.3125 6.02936 19.9248 5.96901 19.9248 5.96901C19.9248 5.96901 20.8212 6.00192 21.1273 5.6069C21.4334 5.21187 21.5154 4.345 20.1763 3.03921C18.8372 1.73341 16.6072 1.9419 16.6072 1.9419C16.6072 1.9419 15.3173 2.17782 15.197 2.76488Z" fill="#FF6600"/>
</svg>
