<svg width="180" height="180" viewBox="0 0 180 180" fill="none" xmlns="http://www.w3.org/2000/svg">
<g clip-path="url(#clip0)">
<g opacity="0.4">
<path d="M61.4415 26.497C61.4415 32.102 56.9538 36.6318 51.4102 36.6318C45.8666 36.6318 41.3789 32.102 41.3789 26.497C41.3789 20.8921 45.8666 16.3623 51.4102 16.3623C56.9362 16.3623 61.4415 20.8921 61.4415 26.497Z" fill="#FFC600"/>
<path d="M52.2024 25.4405C52.748 21.1751 55.2294 18.4784 56.5317 17.791C65.4543 23.9424 60.597 34.1828 54.6311 35.963C50.249 37.2673 47.0636 35.7868 45.7085 34.7292C47.7324 34.0418 51.5161 30.7635 52.2024 25.4405Z" fill="#FFA600"/>
<path d="M51.3927 37.161C45.5676 37.161 40.8335 32.3844 40.8335 26.4975C40.8335 20.6105 45.5676 15.834 51.3927 15.834C57.2179 15.834 61.952 20.6105 61.952 26.4975C61.9696 32.3844 57.2179 37.161 51.3927 37.161ZM51.3927 16.8915C46.1483 16.8915 41.8894 21.1922 41.8894 26.4975C41.8894 31.8028 46.1483 36.1034 51.3927 36.1034C56.6372 36.1034 60.8961 31.8028 60.8961 26.4975C60.8961 21.1922 56.6372 16.8915 51.3927 16.8915Z" fill="#670000"/>
</g>
<path d="M13.6753 140.336C-0.878723 120.556 -4.52371 93.2936 6.20443 78.8985C17.1394 64.5034 42.2665 62.7688 64.1105 51.0404C85.9545 39.3121 104.386 17.823 121.836 18.5739C139.285 19.1434 155.597 42.1859 167.463 72.3482C179.354 102.511 186.644 140.129 171.288 160.117C155.959 180.285 117.777 182.771 85.7736 177.774C53.9511 172.984 28.2553 160.324 13.6753 140.336Z" fill="#313C49"/>
<path d="M142.103 83.1699H41.3101C38.8284 83.1699 36.812 85.1894 36.812 87.6749V99.7916H146.601V87.6749C146.601 85.1894 144.585 83.1699 142.103 83.1699Z" fill="#A86A3F"/>
<path d="M46.1441 81.2803H41.31C37.7943 81.2803 34.9248 84.1541 34.9248 87.6752V88.5555H38.699V87.6752C38.699 86.2254 39.8623 85.0603 41.31 85.0603H45.7563" fill="#670000"/>
<path d="M137.269 81.2803H142.103C145.618 81.2803 148.488 84.1541 148.488 87.6752V88.5555L144.688 88.8403L144.714 87.6493C144.714 86.1994 143.55 85.0344 142.103 85.0344H137.656" fill="#670000"/>
<path d="M141.146 80.115C141.146 107.714 118.992 130.083 91.6931 130.083C64.3945 130.083 42.2402 107.714 42.2402 80.115C42.2402 52.5158 64.3945 30.1465 91.6931 30.1465C119.018 30.1724 141.146 52.5158 141.146 80.115Z" fill="#FFC600"/>
<path d="M95.6485 74.9108C98.3111 53.8878 110.539 40.5542 116.975 37.1885C160.974 67.5061 136.984 118.018 107.643 126.769C86.0836 133.216 70.3146 125.863 63.645 120.711C73.6493 117.345 92.3137 101.164 95.6485 74.9108Z" fill="#FFA600"/>
<path d="M104.877 46.38C105.834 46.38 106.842 47.1309 106.971 48.3218C107.075 49.1762 107.126 50.6261 107.049 52.2831C107.824 52.0242 108.471 51.9206 108.471 51.9206C108.471 51.9206 108.858 51.8947 109.505 51.8947C111.443 51.8947 115.709 52.2313 118.527 55.0274C122.275 58.7298 122.068 61.1894 121.215 62.3026C120.465 63.2606 118.527 63.3383 117.984 63.3383C117.88 63.3383 117.829 63.3383 117.829 63.3383C117.829 63.3383 117.777 63.3383 117.699 63.3383C116.924 63.3383 112.762 63.1829 108.186 60.4385C107.359 59.9466 106.713 59.4547 106.196 58.9628C106.066 59.4806 105.911 59.9984 105.73 60.4644C105.653 60.6457 105.498 61.0599 105.42 61.2411C105.394 61.2411 105.394 61.2152 105.368 61.2152C105.704 61.4483 106.015 61.6813 106.351 61.9402C107.798 63.0535 109.169 64.3739 110.409 65.9273C110.487 66.0568 110.59 66.2121 110.668 66.3415C120.879 82.6784 108.367 111.805 78.0698 114.342C77.2685 114.42 76.4929 114.472 75.7691 114.472C73.4425 114.472 71.4262 114.083 69.72 113.384C63.9035 111.08 61.3701 105.565 61.7579 101.19C62.3783 94.3808 66.2043 94.821 66.3852 80.9437C66.592 65.9273 79.0005 56.9174 91.4606 56.9174C94.8988 56.9174 98.3628 57.6165 101.568 59.0405C101.594 59.0663 101.646 59.0663 101.698 59.0922C102.628 56.0889 103.094 51.2216 102.964 49.6163C102.757 47.3121 103.792 46.38 104.877 46.38ZM104.877 44.9043C103.972 44.9043 103.145 45.2668 102.525 45.9399C101.956 46.5354 101.336 47.6746 101.465 49.6681C101.542 50.885 101.258 54.3025 100.664 57.0469C97.7682 55.9595 94.6661 55.3899 91.4348 55.3899C88.1517 55.3899 84.8945 55.9854 81.7665 57.1246C78.6127 58.2896 75.7691 59.9725 73.3133 62.1473C70.7282 64.4257 68.686 67.1183 67.2642 70.1733C65.7131 73.4355 64.9117 77.0602 64.86 80.8661C64.7566 88.9956 63.3607 91.9471 62.1457 94.5621C61.2926 96.3744 60.4912 98.0832 60.2327 101.009C60 103.598 60.6722 106.368 62.094 108.776C63.6967 111.469 66.1267 113.514 69.1254 114.705C71.1159 115.482 73.3391 115.896 75.7174 115.896C76.5188 115.896 77.3202 115.844 78.1732 115.766C82.2318 115.43 86.1353 114.601 89.7545 113.333C93.1926 112.116 96.424 110.485 99.3451 108.491C104.8 104.763 109.169 99.7143 112.012 93.9407C114.339 89.2287 115.58 84.1282 115.58 79.2091C115.58 74.1604 114.287 69.4225 111.857 65.5131C111.754 65.3577 111.676 65.2024 111.573 65.0729L111.547 64.9952L111.495 64.9435C110.875 64.1926 110.254 63.4936 109.556 62.8205C113.563 64.6587 116.924 64.7622 117.648 64.7622C117.699 64.7622 117.751 64.7622 117.777 64.7622C117.803 64.7622 117.854 64.7622 117.932 64.7622C119.121 64.7622 121.267 64.5551 122.327 63.157C122.792 62.5615 123.49 61.2411 122.973 59.2217C122.559 57.5647 121.396 55.7783 119.509 53.9142C116.381 50.8332 111.883 50.3672 109.479 50.3672C109.039 50.3672 108.703 50.3931 108.522 50.3931C108.522 49.5128 108.471 48.7361 108.419 48.1406C108.212 46.3024 106.687 44.9043 104.877 44.9043Z" fill="#670000"/>
<path d="M99.4487 75.973C96.1398 80.9958 94.5888 86.9506 92.6241 92.6465C90.6853 98.3424 88.1519 104.142 83.5504 107.974C80.1898 110.77 75.9502 112.323 71.659 113.048C70.9869 113.152 70.3406 113.255 69.6685 113.333C71.9433 114.239 74.7352 114.627 78.0442 114.291C108.341 111.728 120.853 82.6269 110.642 66.29C106.144 68.4389 102.215 71.7788 99.4487 75.973Z" fill="#FF952E"/>
<path d="M83.5759 107.973C88.1774 104.141 90.7107 98.3416 92.6496 92.6457C94.5884 86.9498 96.1653 80.995 99.4742 75.9723C102.24 71.778 106.17 68.4382 110.668 66.3152C110.59 66.1857 110.487 66.0304 110.409 65.9009C109.168 64.3734 107.798 63.053 106.351 61.9138C104.825 60.7228 103.223 59.7649 101.542 59.0141C86.7556 52.3602 66.6435 61.7584 66.3592 80.9173C66.1782 94.7687 62.3523 94.3545 61.7319 101.164C61.3441 105.539 63.8775 111.054 69.6939 113.358C70.3661 113.28 71.0123 113.177 71.6845 113.073C75.9499 112.322 80.2153 110.795 83.5759 107.973Z" fill="#FFC300"/>
<path d="M105.679 60.438C107.075 56.658 107.204 50.5478 106.945 48.3213C106.661 45.8358 102.602 45.2144 102.887 49.5899C102.99 51.1951 102.551 56.0625 101.62 59.0917C102.939 59.6871 104.05 60.3603 105.368 61.2406C105.472 61.0334 105.627 60.6451 105.679 60.438Z" fill="#FF952E"/>
<path d="M104.49 54.2243C104.49 54.2243 103.042 57.3571 108.161 60.4121C113.279 63.4672 117.829 63.3119 117.829 63.3119C117.829 63.3119 120.362 63.4154 121.215 62.2763C122.068 61.163 122.301 58.7034 118.527 55.0011C114.778 51.2987 108.471 51.9201 108.471 51.9201C108.471 51.9201 104.826 52.5415 104.49 54.2243Z" fill="#78C300"/>
<path d="M80.629 70.4057C81.0426 68.8523 79.5949 67.1177 77.4234 66.5222C75.252 65.9267 73.1322 66.7293 72.7444 68.2827C72.3308 69.8362 73.7784 71.5708 75.9499 72.1663C78.1214 72.7618 80.2153 71.9592 80.629 70.4057Z" fill="#FF6600"/>
<path d="M81.6116 69.7328C81.896 68.982 83.0075 67.3509 83.964 68.1535C84.8947 68.9043 83.5763 70.5095 83.111 71.1309C82.4647 72.0112 83.9382 72.8656 84.5586 71.9853C85.179 71.105 85.8512 70.1212 85.9287 69.0338C86.0063 68.0758 85.5668 67.1179 84.7137 66.626C82.6456 65.4091 80.6551 67.4286 79.9571 69.2668C79.6211 70.3283 81.2238 70.7684 81.6116 69.7328Z" fill="#670000"/>
<path d="M101.465 84.7232C102.577 83.584 102.189 81.3575 100.586 79.7523C98.9833 78.1471 96.7601 77.7846 95.6485 78.9238C94.5369 80.0629 94.9247 82.2895 96.5275 83.8947C98.1302 85.4999 100.353 85.8624 101.465 84.7232Z" fill="#FF6600"/>
<path d="M96.915 79.2609C98.2334 77.8111 98.9055 74.8078 96.9925 73.4874C96.0877 72.866 94.8986 73.0213 94.0455 73.6427C93.1924 74.2641 92.7013 75.2997 92.2876 76.2835C91.8482 77.2674 93.2958 78.1476 93.7353 77.1379C94.0197 76.4389 94.8727 74.2641 95.9843 74.8596C96.4496 75.1185 96.5014 75.8952 96.4755 76.3612C96.4238 77.0085 96.1653 77.5781 95.7258 78.07C94.9761 78.8467 96.1653 80.0635 96.915 79.2609Z" fill="#670000"/>
<path d="M85.9028 74.9114C86.0062 76.413 87.4538 77.4745 88.8756 76.9308C89.6511 76.646 89.3151 75.3774 88.5396 75.6622C87.9191 75.8952 87.247 75.6104 87.1953 74.9114C87.1178 74.0829 85.8252 74.057 85.9028 74.9114Z" fill="#670000"/>
<path d="M91.7191 132.155C63.309 132.155 40.1982 108.827 40.1982 80.1149C40.1982 51.4025 63.309 28.0752 91.7191 28.0752C120.129 28.0752 143.24 51.4025 143.24 80.1149C143.24 108.827 120.103 132.155 91.7191 132.155ZM91.7191 32.2436C65.5839 32.2436 44.3344 53.7326 44.3344 80.1408C44.3344 106.549 65.5839 128.038 91.7191 128.038C117.854 128.038 139.104 106.549 139.104 80.1408C139.104 53.7326 117.829 32.2436 91.7191 32.2436Z" fill="#670000"/>
<g opacity="0.56">
<path d="M131.759 14.7262C131.759 21.5283 126.301 27.0442 119.583 27.0442C112.866 27.0442 107.408 21.5283 107.408 14.7262C107.408 7.9241 112.866 2.4082 119.583 2.4082C126.301 2.4082 131.759 7.9241 131.759 14.7262Z" fill="#FFC600"/>
<path d="M120.547 13.441C121.214 8.27137 124.227 4.98161 125.807 4.14062C136.649 11.6106 130.747 24.0523 123.511 26.2042C118.201 27.7873 114.298 25.9816 112.668 24.7201C115.138 23.9039 119.732 19.9215 120.547 13.441Z" fill="#FFA600"/>
<path d="M119.584 27.7871C112.446 27.7871 106.667 21.9249 106.667 14.7271C106.667 7.52918 112.471 1.66699 119.584 1.66699C126.696 1.66699 132.5 7.52918 132.5 14.7271C132.5 21.9249 126.696 27.7871 119.584 27.7871ZM119.584 3.15109C113.261 3.15109 108.149 8.34544 108.149 14.7271C108.149 21.1087 113.286 26.303 119.584 26.303C125.906 26.303 131.018 21.1087 131.018 14.7271C131.018 8.34544 125.881 3.15109 119.584 3.15109Z" fill="#670000"/>
</g>
<path d="M143.654 167.883H38.4149C34.8216 167.883 31.9263 164.957 31.9263 161.385V96.9692C31.9263 93.3704 34.8474 90.4707 38.4149 90.4707H143.654C147.247 90.4707 150.143 93.3963 150.143 96.9692V161.359C150.143 164.957 147.247 167.883 143.654 167.883Z" fill="#C47E4D"/>
<path d="M143.654 90.4707H131.84C135.433 90.4707 138.328 93.3963 138.328 96.9692V161.359C138.328 164.957 135.407 167.857 131.84 167.857H143.654C147.247 167.857 150.142 164.932 150.142 161.359V96.9692C150.142 93.3704 147.247 90.4707 143.654 90.4707Z" fill="#A86A3F"/>
<path d="M154.02 116.724H130.341C123.49 116.724 117.932 122.29 117.932 129.151C117.932 136.012 123.49 141.578 130.341 141.578H154.02C155.313 141.578 156.372 140.517 156.372 139.222V119.08C156.372 117.785 155.313 116.724 154.02 116.724Z" fill="#CA8A5E"/>
<path d="M154.02 116.724H142.154C143.447 116.724 144.507 117.785 144.507 119.08V136.064C144.507 137.462 143.395 138.575 141.999 138.575H130.341C123.981 138.575 118.759 133.811 118.01 127.649C117.958 128.141 117.906 128.659 117.906 129.151C117.906 136.012 123.464 141.578 130.315 141.578H142.129H153.994C155.287 141.578 156.347 140.517 156.347 139.222V136.193V119.08C156.372 117.785 155.313 116.724 154.02 116.724Z" fill="#C47E4D"/>
<path d="M143.654 90.4707H38.4149C34.8216 90.4707 31.9263 93.3963 31.9263 96.9692V104.089H150.143V96.9692C150.143 93.3704 147.247 90.4707 143.654 90.4707Z" fill="#CA8B5F"/>
<path d="M149.031 93.3445C148.798 93.008 148.54 92.6714 148.229 92.3866C147.945 92.1018 147.609 91.8429 147.273 91.6099C147.195 91.5581 147.092 91.5063 147.014 91.4287C146.885 91.351 146.756 91.2733 146.601 91.1956C146.523 91.1439 146.42 91.118 146.316 91.0662C145.489 90.7037 144.584 90.4707 143.628 90.4707H131.84C135.433 90.4707 138.328 93.3963 138.328 96.9692V104.089H150.142V96.9692C150.142 95.8559 149.858 94.7944 149.367 93.8623C149.263 93.6811 149.16 93.4999 149.031 93.3445Z" fill="#A86A3F"/>
<path d="M38.4149 167.883H143.654C147.247 167.883 150.143 164.957 150.143 161.385V154.265H31.9263V161.385C31.9263 164.957 34.8474 167.883 38.4149 167.883Z" fill="#CA8A5E"/>
<path d="M138.329 154.239V161.359C138.329 161.954 137.838 162.446 137.217 162.446H38.4149C34.8216 162.446 31.9263 159.52 31.9263 155.948V161.359C31.9263 164.957 34.8474 167.857 38.4149 167.857H131.84H143.654C143.783 167.857 143.912 167.857 144.042 167.857C144.093 167.857 144.119 167.857 144.171 167.857C144.249 167.857 144.352 167.831 144.43 167.831C144.481 167.831 144.507 167.831 144.559 167.805C144.636 167.805 144.74 167.779 144.817 167.754C144.843 167.754 144.895 167.754 144.921 167.728C145.05 167.702 145.153 167.676 145.283 167.65C145.334 167.624 145.386 167.624 145.438 167.598C145.696 167.521 145.955 167.443 146.187 167.339C146.291 167.288 146.368 167.262 146.472 167.21C146.575 167.158 146.653 167.106 146.756 167.055C146.937 166.951 147.118 166.847 147.299 166.718C147.454 166.614 147.583 166.511 147.738 166.407C147.738 166.407 147.764 166.407 147.764 166.381C147.894 166.278 148.049 166.148 148.178 166.019C148.333 165.864 148.488 165.708 148.617 165.553C148.824 165.294 149.031 165.035 149.212 164.75C149.212 164.75 149.212 164.724 149.238 164.724C149.315 164.621 149.367 164.517 149.419 164.414C149.574 164.129 149.703 163.818 149.832 163.508C149.832 163.482 149.858 163.43 149.858 163.404C149.884 163.326 149.91 163.249 149.936 163.171C149.936 163.119 149.962 163.093 149.962 163.042C149.987 162.964 150.013 162.886 150.013 162.783C150.013 162.757 150.039 162.705 150.039 162.679C150.065 162.55 150.091 162.446 150.117 162.317C150.143 162.161 150.143 162.032 150.168 161.876C150.168 161.851 150.168 161.799 150.168 161.773C150.168 161.618 150.194 161.488 150.194 161.333V155.922V154.213L138.329 154.239Z" fill="#A86A3F"/>
<path d="M130.78 134.95C133.964 134.95 136.545 132.366 136.545 129.177C136.545 125.988 133.964 123.403 130.78 123.403C127.596 123.403 125.015 125.988 125.015 129.177C125.015 132.366 127.596 134.95 130.78 134.95Z" fill="#FFC600"/>
<path d="M130.78 121.514C126.566 121.514 123.128 124.957 123.128 129.177C123.128 133.397 126.566 136.841 130.78 136.841C134.994 136.841 138.432 133.397 138.432 129.177C138.432 124.957 134.994 121.514 130.78 121.514ZM130.78 133.061C128.634 133.061 126.902 131.326 126.902 129.177C126.902 127.028 128.634 125.294 130.78 125.294C132.925 125.294 134.657 127.028 134.657 129.177C134.657 131.326 132.925 133.061 130.78 133.061Z" fill="#670000"/>
<path d="M154.02 114.834H152.03V104.089V96.9695C152.03 94.1475 150.634 91.6361 148.488 90.1086V88.5811H144.714V88.6587C144.378 88.6069 144.016 88.5811 143.654 88.5811H135.64H113.434H89.9873H86.2131H76.6483H72.0726H69.1773H64.6276H55.3988H51.5987H49.1946H45.3945H38.6732H34.899V89.3578C32.0037 90.6782 30.0132 93.6038 30.0132 96.9954V104.115V154.239V161.359C30.0132 165.993 33.7616 169.747 38.3889 169.747H143.628C148.255 169.747 152.004 165.993 152.004 161.359V154.239V143.495H153.994C156.321 143.495 158.234 141.579 158.234 139.249V119.08C158.26 116.75 156.347 114.834 154.02 114.834ZM33.8133 96.9695C33.8133 94.4323 35.8813 92.361 38.4147 92.361H143.654C146.187 92.361 148.255 94.4323 148.255 96.9695V102.199H33.8133V96.9695ZM148.255 152.349H56.0709C55.0369 152.349 54.1838 153.204 54.1838 154.239C54.1838 155.275 55.0369 156.129 56.0709 156.129H148.281V161.359C148.281 163.896 146.213 165.967 143.68 165.967H38.4147C35.8813 165.967 33.8133 163.896 33.8133 161.359V156.129H43.9727C45.0067 156.129 45.8598 155.275 45.8598 154.239C45.8598 153.204 45.0067 152.349 43.9727 152.349H33.8133V106.005H148.255V114.86H130.315C124.653 114.86 119.768 118.148 117.441 122.938C117.441 122.964 117.415 122.964 117.415 122.989C117.389 123.041 117.389 123.067 117.363 123.119C117.079 123.714 116.846 124.31 116.64 124.957C116.226 126.303 115.993 127.727 115.993 129.203C115.993 137.1 122.404 143.521 130.289 143.521H148.229L148.255 152.349ZM154.485 139.249C154.485 139.507 154.279 139.715 154.02 139.715H150.142H130.315C126.334 139.715 122.844 137.488 121.06 134.2C120.983 134.045 120.905 133.889 120.827 133.734C120.672 133.423 120.543 133.113 120.44 132.776C120.026 131.637 119.793 130.42 119.793 129.151C119.793 127.883 120.026 126.666 120.44 125.527C120.569 125.216 120.698 124.879 120.827 124.569C120.905 124.413 120.983 124.258 121.06 124.103C122.844 120.815 126.334 118.588 130.315 118.588H150.142H154.02C154.279 118.588 154.485 118.795 154.485 119.054V139.249Z" fill="#670000"/>
</g>
<defs>
<clipPath id="clip0">
<rect width="180" height="180" fill="white"/>
</clipPath>
</defs>
</svg>
